<?xml version="1.0" encoding="UTF-8" standalone="no"?>
<!-- Created with Inkscape (http://www.inkscape.org/) -->

<svg
   xmlns:dc="http://purl.org/dc/elements/1.1/"
   xmlns:cc="http://creativecommons.org/ns#"
   xmlns:rdf="http://www.w3.org/1999/02/22-rdf-syntax-ns#"
   xmlns:svg="http://www.w3.org/2000/svg"
   xmlns="http://www.w3.org/2000/svg"
   xmlns:sodipodi="http://sodipodi.sourceforge.net/DTD/sodipodi-0.dtd"
   xmlns:inkscape="http://www.inkscape.org/namespaces/inkscape"
   width="768"
   height="256"
   viewBox="0 0 203.19999 67.733335"
   version="1.1"
   id="svg4594"
   inkscape:version="0.92.4 5da689c313, 2019-01-14"
   sodipodi:docname="logo.svg">
  <defs
     id="defs4588" />
  <sodipodi:namedview
     id="base"
     pagecolor="#000000"
     bordercolor="#666666"
     borderopacity="1.0"
     inkscape:pageopacity="1"
     inkscape:pageshadow="2"
     inkscape:zoom="0.98994949"
     inkscape:cx="408.23501"
     inkscape:cy="62.872015"
     inkscape:document-units="px"
     inkscape:current-layer="g4547"
     showgrid="false"
     showborder="true"
     inkscape:pagecheckerboard="true"
     units="px"
     height="1024px"
     inkscape:window-width="1440"
     inkscape:window-height="839"
     inkscape:window-x="0"
     inkscape:window-y="0"
     inkscape:window-maximized="1" />
  <metadata
     id="metadata4591">
    <rdf:RDF>
      <cc:Work
         rdf:about="">
        <dc:format>image/svg+xml</dc:format>
        <dc:type
           rdf:resource="http://purl.org/dc/dcmitype/StillImage" />
        <dc:title></dc:title>
      </cc:Work>
    </rdf:RDF>
  </metadata>
  <g
     inkscape:label="Layer 1"
     inkscape:groupmode="layer"
     id="layer1"
     transform="translate(0,-229.26666)">
    <g
       id="g4547"
       transform="matrix(0.03527778,0,0,-0.03527778,36.183271,195.66915)">
      <g
         id="g5849"
         transform="matrix(0.50804089,0,0,0.50804089,995.23698,-242.60236)">
        <path
           inkscape:connector-curvature="0"
           id="path4549"
           style="fill:#f2f3f3;fill-opacity:1;fill-rule:evenodd;stroke:none"
           d="m 2763.0795,-3444.7942 c 188.3278,0 376.6598,0 564.9888,0 v -187.75 h -181.977 v -1221.8399 h -201.035 v 1221.8399 h -181.9768 v 187.75" />
        <path
           inkscape:connector-curvature="0"
           id="path4551"
           style="fill:#f2f3f3;fill-opacity:1;fill-rule:evenodd;stroke:none"
           d="m 3949.0963,-4854.3841 h 181.98 v 1135.1799 h -181.98 v -1135.1799" />
        <path
           inkscape:connector-curvature="0"
           id="path4553"
           style="fill:#f2f3f3;fill-opacity:1;fill-rule:evenodd;stroke:none"
           d="m 3399.1303,-4854.3841 h 181.977 v 939.668 c 25.312,67.812 97.578,57.052 97.578,0 v -939.6641 h 189.011 v 1008.9261 c 0,160.9199 -188.175,192.8499 -286.589,57.7099 v 342.95 h -181.977 v -1409.5899" />
        <path
           inkscape:connector-curvature="0"
           id="path4555"
           style="fill:#f2f3f3;fill-opacity:1;fill-rule:evenodd;stroke:none"
           d="m 4209.0663,-4854.3841 h 181.97 v 939.668 c 25.32,67.812 97.58,57.052 97.58,0 v -939.668 h 189.01 v 1008.92 c 0,160.9299 -188.17,192.8599 -286.59,57.7199 v 68.54 h -181.97 v -1135.1799" />
        <path
           inkscape:connector-curvature="0"
           id="path4557"
           style="fill:#ed1c24;fill-opacity:1;fill-rule:evenodd;stroke:none"
           d="m 4040.0863,-3646.5142 c -63.22,0 -114.48,51.26 -114.48,114.48 0,63.21 51.26,114.48 114.48,114.48 63.21,0 114.48,-51.27 114.48,-114.48 0,-63.22 -51.27,-114.48 -114.48,-114.48" />
        <path
           inkscape:connector-curvature="0"
           id="path4559"
           style="fill:#f2f3f3;fill-opacity:1;fill-rule:evenodd;stroke:none"
           d="m 4753.7863,-4854.3841 h 181.97 c 0,708.844 0,1026.75 0,1409.5899 h -181.97 v -1409.5899" />
        <path
           inkscape:connector-curvature="0"
           id="path4561"
           style="fill:#f2f3f3;fill-opacity:1;fill-rule:evenodd;stroke:none"
           d="m 5048.0763,-3719.2042 h 191.62 l -112.32,-524.7349 120.23,-610.445 h -191.61 l -120.24,610.445 112.32,524.7349" />
        <path
           inkscape:connector-curvature="0"
           id="path4563"
           style="fill:#f2f3f3;fill-opacity:1;fill-rule:evenodd;stroke:none"
           d="m 5315.7663,-3444.7942 h 201.04 c 207.3,0 266.97,-96.38 266.97,-215.98 v -362.1529 c 0,-119.605 -59.67,-215.984 -266.97,-215.98 v -615.477 h -201.04 z m 281.89,-215.98 c 0,30.09 -25.01,57.71 -80.85,57.71 v -477.5779 c 55.84,0 80.85,27.617 80.85,57.715 v 362.1529" />
        <path
           inkscape:connector-curvature="0"
           id="path4565"
           style="fill:#f2f3f3;fill-opacity:1;fill-rule:evenodd;stroke:none"
           d="m 5862.3363,-4118.8331 h 181.98 c 0,108.258 0,156.804 0,215.277 0,38.16 22.94,60.482 43.21,60.482 h 6.64 c 20.27,0 43.21,-22.322 43.21,-60.482 v -58.773 c 0,-256.344 -280.01,-199.864 -280.01,-371.203 v -419.465 c 0,-148.1917 280.01,-123.1214 280.01,0 v -101.387 h 181.98 c 0,478.145 0,692.586 0,950.828 0,150.3719 -119.78,205.2019 -225.19,205.2019 h -6.64 c -105.41,0 -225.19,-54.83 -225.19,-205.2019 z m 275.04,-143.606 v -409.765 c 0,-40.395 -88.12,-58.184 -88.12,2.886 v 301.551 c 0,45.778 58.68,80.672 88.12,105.328" />
        <path
           inkscape:connector-curvature="0"
           id="path4567"
           style="fill:#f2f3f3;fill-opacity:1;fill-rule:evenodd;stroke:none"
           d="m 6690.4763,-4854.3841 h 181.97 c 0,708.844 0,1026.75 0,1409.5899 h -181.97 v -348.74 c 0,84.06 -284.83,142.29 -284.83,-14.4299 v -947.924 c 0,-156.7226 284.83,-98.496 284.83,-14.4296 z m -97.27,947.602 c 0,65.018 97.27,57.308 97.27,-26.711 v -696.868 c 0,-84.023 -97.27,-91.726 -97.27,-26.71 v 750.289" />
      </g>
      <g
         transform="matrix(5.3903522,0,0,-5.3903522,-6735.8493,32379.157)"
         id="layer1-3">
        <g
           transform="matrix(1.6151785,0,0,1.6151785,-587.92098,-3847.6616)"
           id="g161995">
          <path
             inkscape:connector-curvature="0"
             d="m 1680.0624,6302.6515 v 11.8481 h -1.9873 v -9.1315 h -0.1257 l -3.2954,9.1315 h -1.7106 l -3.27,-9.1315 v 9.1315 h -2.0126 v -11.8481 h 2.9937 l 3.2953,9.2822 3.119,-9.2822 h 2.9936"
             id="path151697"
             style="fill:#0067af;fill-rule:nonzero;stroke:none;fill-opacity:1" />
          <path
             inkscape:connector-curvature="0"
             d="m 1666.3782,6302.6515 v 1.7106 h -3.8488 v 10.1375 h -1.9873 v -10.1375 h -3.8488 v -1.7106 h 9.6849"
             id="path151699"
             style="fill:#0067af;fill-rule:nonzero;stroke:none;fill-opacity:1" />
          <path
             inkscape:connector-curvature="0"
             d="m 1616.6218,6284.9676 c 2.9933,-9.6847 2.9933,-15.3946 0.1258,-19.1177 -2.1382,-2.5659 -5.2575,-3.8485 -9.9865,-3.8485 -10.5398,0 -16.3759,5.9867 -21.0799,20.9791 -3.0185,9.8355 -3.0185,15.5455 -0.1508,19.2434 1.9872,2.4399 5.2826,3.7228 9.9865,3.7228 10.3889,0 16.401,-5.8608 21.1049,-20.9791 z m 41.2036,-21.6836 c 4.1253,5.1568 5.0057,11.6973 2.5658,19.6965 -6.8421,22.1111 -32.651,34.7889 -70.8864,34.7889 -22.8155,0 -38.3359,-4.4271 -45.2033,-12.9798 -4.1255,-5.1315 -4.8299,-11.8227 -2.4148,-19.822 6.8421,-22.111 32.651,-34.7891 70.8863,-34.7891 22.6645,0 38.3611,4.553 45.0524,13.1055"
             id="path151701"
             style="fill:#0067af;fill-rule:nonzero;stroke:none;fill-opacity:1" />
          <path
             inkscape:connector-curvature="0"
             d="m 1515.2225,6252.3165 c 1.283,0 36.4996,0 40.4992,0 -2.4398,3.2703 -46.4861,62.4596 -47.2155,63.466 -1.2829,0 -60.1704,0 -62.1577,0 -0.3019,-1.8615 -7.7226,-61.1767 -7.9993,-63.466 2.4148,0 36.223,0 38.0845,0 0.2767,1.8615 5.5592,44.4991 5.5592,44.4991 0,0 32.651,-43.6436 33.2296,-44.4991"
             id="path151703"
             style="fill:#0067af;fill-rule:nonzero;stroke:none;fill-opacity:1" />
          <path
             inkscape:connector-curvature="0"
             d="m 1389.5739,6284.9676 c 2.9935,-9.6847 3.1444,-15.3946 0.1511,-19.1177 -2.0124,-2.5659 -5.2826,-3.8485 -9.8357,-3.8485 -10.5649,0 -16.5518,5.9867 -21.105,20.9791 -3.1442,9.8355 -3.1442,15.5455 -0.1508,19.2434 1.9872,2.4399 5.2825,3.7228 9.8355,3.7228 10.5651,0 16.5521,-5.8608 21.1049,-20.9791 z m 41.3547,-21.6836 c 4.1504,5.1568 5.0059,11.6973 2.44,19.6965 -6.8421,22.1111 -32.6761,34.7889 -70.7355,34.7889 -22.8153,0 -38.361,-4.4271 -45.2286,-12.9798 -4.1253,-5.1315 -4.9806,-11.8227 -2.5655,-19.822 6.9929,-22.111 32.8019,-34.7891 70.8863,-34.7891 22.8154,0 38.3611,4.553 45.2033,13.1055"
             id="path151705"
             style="fill:#00a658;fill-rule:nonzero;stroke:none;fill-opacity:1" />
          <path
             inkscape:connector-curvature="0"
             d="m 1311.7194,6260.1658 c 1.5596,1.9872 2.4148,3.9744 1.9872,6.8421 l -15.8224,48.901 h -41.9332 l 14.8415,-45.6309 c 0.5534,-1.9873 -0.151,-3.6978 -1.2829,-4.9807 -2.0124,-2.44 -6.2887,-3.9995 -20.9792,-2.9934 0,0 -17.382,52.9006 -17.6838,53.605 h -41.908 c 0.4024,-1.132 19.671,-60.0195 19.9478,-60.5981 14.5647,-2.5658 33.8081,-4.9806 53.781,-4.9806 27.0918,0 43.6186,3.2701 49.052,9.8356"
             id="path151713"
             style="fill:#00a658;fill-opacity:1" />
          <path
             inkscape:connector-curvature="0"
             d="m 1158.7024,6273.5733 c 0.8553,-3.9997 -0.4276,-6.9931 -1.8614,-8.7036 -1.5596,-2.0124 -5.0059,-4.5782 -12.1247,-4.5782 -10.1122,0 -17.6838,4.855 -20.2496,12.9799 l -4.9807,18.6901 z m 35.2168,-0.151 c 0,2.9934 -0.7043,5.5592 -1.2829,6.6913 -1.2829,0.3018 -74.4332,16.5518 -74.4332,16.5518 0,0 -0.7295,3.572 1.9873,5.4334 3.5719,2.5659 7.4206,3.2702 13.9609,3.547 16.1242,0.7043 37.9587,-8.7036 44.0713,-11.3952 -0.9811,3.1192 -7.2698,16.8286 -7.5465,17.5329 -2.7167,1.0062 -17.8348,5.836 -47.4923,5.9868 -11.2694,0.151 -31.3682,-1.2829 -39.6441,-11.6969 -4.1254,-5.1316 -4.8549,-12.4014 -2.0124,-21.5325 6.7164,-21.8094 31.8208,-34.3617 68.5973,-34.3617 20.5515,0 33.959,3.8487 40.0969,11.3952 2.4148,3.1444 3.6977,7.144 3.6977,11.8479"
             id="path151715"
             style="fill:#ed1c24;fill-opacity:1" />
          <path
             inkscape:connector-curvature="0"
             d="m 1051.1657,6221.3762 c 1.7103,0 38.638,0 41.5055,0 -0.8552,2.6915 -28.8022,92.8214 -29.255,94.4063 -1.7107,0 -38.6381,0 -41.4805,0 0.8551,-2.7168 28.8023,-92.8468 29.23,-94.4063"
             id="path151717"
             style="fill:#ed1c24;fill-rule:nonzero;stroke:none;fill-opacity:1" />
        </g>
      </g>
    </g>
  </g>
</svg>
