<?xml version="1.0" encoding="UTF-8" standalone="no"?>
<svg
   xmlns:dc="http://purl.org/dc/elements/1.1/"
   xmlns:cc="http://creativecommons.org/ns#"
   xmlns:rdf="http://www.w3.org/1999/02/22-rdf-syntax-ns#"
   xmlns:svg="http://www.w3.org/2000/svg"
   xmlns="http://www.w3.org/2000/svg"
   xmlns:sodipodi="http://sodipodi.sourceforge.net/DTD/sodipodi-0.dtd"
   xmlns:inkscape="http://www.inkscape.org/namespaces/inkscape"
   width="100%"
   height="100%"
   viewBox="0 0 800 300"
   version="1.1"
   xml:space="preserve"
   style="fill-rule:evenodd;clip-rule:evenodd;stroke-linejoin:round;stroke-miterlimit:1.41421;"
   id="svg93"
   sodipodi:docname="powered-by-gentoo.svg"
   inkscape:version="0.92.4 5da689c313, 2019-01-14"><metadata
     id="metadata97"><rdf:RDF><cc:Work
         rdf:about=""><dc:format>image/svg+xml</dc:format><dc:type
           rdf:resource="http://purl.org/dc/dcmitype/StillImage" /><dc:title /></cc:Work></rdf:RDF></metadata><sodipodi:namedview
     pagecolor="#ffffff"
     bordercolor="#666666"
     borderopacity="1"
     objecttolerance="10"
     gridtolerance="10"
     guidetolerance="10"
     inkscape:pageopacity="0"
     inkscape:pageshadow="2"
     inkscape:window-width="1920"
     inkscape:window-height="1015"
     id="namedview95"
     showgrid="false"
     showguides="true"
     inkscape:guide-bbox="true"
     inkscape:zoom="1"
     inkscape:cx="475.73558"
     inkscape:cy="175.12251"
     inkscape:window-x="0"
     inkscape:window-y="0"
     inkscape:window-maximized="1"
     inkscape:current-layer="g875"
     inkscape:pagecheckerboard="true"><sodipodi:guide
       position="70.218374,40.625"
       orientation="0,1"
       id="guide4617"
       inkscape:locked="false" /><sodipodi:guide
       position="779.97392,146.7992"
       orientation="1,0"
       id="guide4619"
       inkscape:locked="false" /><sodipodi:guide
       position="115.02259,259.4503"
       orientation="0,1"
       id="guide4629"
       inkscape:locked="false" /><sodipodi:guide
       position="779.946,177.67781"
       orientation="1,0"
       id="guide875"
       inkscape:locked="false" /><sodipodi:guide
       position="106.19308,259.3977"
       orientation="0,1"
       id="guide877"
       inkscape:locked="false" /></sodipodi:namedview><g
     id="Ebene-1"><g
       id="g30"
       style="fill:#f2f3f3;fill-opacity:1"
       transform="translate(0,43.98119)"><path
         d="m 573.027,63.308 h 9.919 v 119.537 c -3.306,-0.07 -6.889,0.137 -10.023,-0.106 V 63.621 c -0.009,-0.148 -0.016,-0.295 0.104,-0.313"
         style="fill:#f2f3f3;fill-opacity:1"
         id="path2"
         inkscape:connector-curvature="0" /><path
         d="m 597.979,63.308 h 10.962 V 75.94 h -11.066 c 0.07,-4.176 -0.139,-8.631 0.104,-12.632"
         style="fill:#f2f3f3;fill-opacity:1"
         id="path4"
         inkscape:connector-curvature="0" /><path
         d="m 433.134,99.534 h 7.621 v 8.457 h -7.517 c -0.19,18.5 -0.103,39.166 -0.104,58.566 0,2.94 -0.167,5.871 0.836,7.518 1.055,1.734 4.119,2.06 6.785,1.88 v 8.768 c -6.579,0.421 -13.056,0.039 -15.45,-4.489 -2.175,-4.111 -2.089,-10.202 -2.089,-16.496 v -55.747 h -5.428 v -8.457 h 5.428 V 81.16 c 3.239,-1.321 6.785,-2.891 9.918,-3.968 z"
         style="fill:#f2f3f3;fill-opacity:1"
         id="path6"
         inkscape:connector-curvature="0" /><path
         d="m 753.846,78.341 h 8.665 v 2.296 h -3.027 c -0.244,8.978 -0.035,18.408 -0.104,27.563 -0.844,-0.062 -1.937,0.126 -2.61,-0.105 V 80.637 h -3.028 c 0.068,-0.731 -0.138,-1.738 0.104,-2.296"
         style="fill:#f2f3f3;fill-opacity:1"
         id="path8"
         inkscape:connector-curvature="0" /><path
         d="m 765.33,78.341 h 4.385 c 0.842,9.249 1.934,18.249 2.818,27.457 0.583,-2.126 0.697,-4.434 0.94,-6.682 0.741,-6.884 1.345,-13.929 2.088,-20.775 h 4.385 V 108.2 c -0.742,-0.058 -1.725,0.123 -2.297,-0.105 -0.069,-9.154 0.138,-18.584 -0.105,-27.561 -0.53,0.298 -0.373,1.111 -0.417,1.566 -0.82,8.504 -1.876,17.63 -2.819,26.1 h -3.549 c -1.062,-9.205 -1.857,-18.677 -3.133,-27.666 -0.484,8.786 -0.071,18.475 -0.208,27.666 h -2.192 c 0.069,-9.919 -0.14,-20.116 0.104,-29.859"
         style="fill:#f2f3f3;fill-opacity:1"
         id="path10"
         inkscape:connector-curvature="0" /><path
         d="m 286.35,122.814 v 32.99 c 0,5.719 -0.184,11.772 1.879,14.617 1.527,2.103 5.589,2.944 8.039,1.565 3.394,-1.909 3.549,-8.371 3.549,-14.617 v -36.434 c 0,-5.936 0.115,-12.569 -3.759,-14.512 -1.06,-0.531 -3.178,-0.556 -4.175,-0.415 -6.132,0.86 -5.533,9.838 -5.533,16.806 m 13.467,-18.271 c 0.322,-1.626 0.507,-3.39 0.836,-5.009 h 9.291 v 87.694 c 0,7.791 -0.058,14.763 -1.984,19.942 -2.011,5.407 -6.517,8.074 -13.676,8.246 -7.469,0.179 -12.841,-1.693 -15.451,-6.472 -2.511,-4.596 -2.891,-11.123 -2.714,-19.21 h 10.44 c 0.29,5.488 -0.647,11.396 1.462,14.93 1.807,3.03 7.566,3.108 9.708,0.416 2.448,-3.074 2.088,-9.592 2.088,-15.659 v -15.242 c -0.979,1.191 -1.603,2.357 -2.61,3.341 -4.817,4.703 -15.231,4.841 -18.687,-1.044 -2.355,-4.009 -2.401,-10.682 -2.401,-17.331 v -39.462 c 0,-11.007 0.072,-21.328 9.918,-22.133 7.047,-0.576 11.073,2.693 13.78,6.993"
         style="fill:#f2f3f3;fill-opacity:1"
         id="path12"
         inkscape:connector-curvature="0" /><path
         d="m 348.258,121.143 c 0,-7.34 0.416,-15.811 -7.203,-15.135 -6.049,0.533 -5.951,8.058 -5.951,14.822 v 16.601 c 4.176,0.243 8.804,0.034 13.154,0.104 z m 10.44,24.848 h -23.594 v 15.346 c 0,4.836 -0.143,10.687 2.087,13.259 2.037,2.347 7.034,2.277 8.979,0 3.449,-4.041 1.512,-13.619 2.088,-20.358 h 10.44 c -0.217,9.403 0.608,17.507 -2.61,23.908 -2.202,4.38 -7.154,6.456 -13.154,6.682 -6.137,0.229 -11.678,-1.256 -14.511,-5.22 -3.297,-4.613 -3.55,-13.199 -3.55,-21.402 v -24.953 c 0,-8.961 -0.431,-17.435 0.94,-24.01 1.543,-7.409 5.482,-11.175 13.572,-11.693 8.245,-0.527 13.826,1.56 16.494,6.472 2.704,4.978 2.819,12.08 2.819,19.627 z"
         style="fill:#f2f3f3;fill-opacity:1"
         id="path14"
         inkscape:connector-curvature="0" /><path
         d="m 407.452,182.844 h -9.918 v -57.106 c 0,-5.984 0.619,-13.488 -1.775,-17.227 -2.008,-3.137 -8.162,-3.291 -10.335,-0.104 -2.48,3.637 -1.88,11.303 -1.88,17.226 v 57.211 h -9.918 v -83.31 h 9.292 c 0.245,1.6 0.439,3.25 0.626,4.906 2.324,-3.221 5.391,-6.46 10.649,-6.89 13.435,-1.097 13.259,10.566 13.259,23.176 z"
         style="fill:#f2f3f3;fill-opacity:1"
         id="path16"
         inkscape:connector-curvature="0" /><path
         d="m 460.695,123.232 c 0,10.886 0,24.414 0,35.287 0,5.941 -0.492,12.86 1.879,15.869 1.958,2.481 6.857,2.25 8.665,0.625 2.906,-2.61 2.61,-9.946 2.61,-15.973 0,-12.689 0.001,-24.053 0,-37.164 0,-7.626 0.47,-16.766 -7.412,-15.765 -6.494,0.823 -5.742,9.771 -5.742,17.121 m 4.071,-25.578 c 5.931,-0.464 11.53,0.596 14.616,3.549 5.873,5.62 4.907,19.476 4.907,31.217 0.001,6.141 0,12.297 0,18.06 0.001,11.839 0.934,25.581 -5.221,31.006 -3.385,2.985 -9.033,3.795 -14.615,3.236 -5.188,-0.518 -9.336,-2.619 -11.379,-6.68 -2.169,-4.315 -2.58,-10.632 -2.715,-17.436 -0.143,-7.27 0,-13.285 0,-20.043 0,-7.247 -0.316,-13.472 0,-20.149 0.285,-6.006 0.634,-12.946 3.029,-17.017 2.139,-3.639 6.406,-5.354 11.378,-5.743"
         style="fill:#f2f3f3;fill-opacity:1"
         id="path18"
         inkscape:connector-curvature="0" /><path
         d="m 509.136,123.755 v 36.434 c 0,5.998 -0.274,13.044 3.027,15.242 2.127,1.417 6.105,0.972 7.621,-0.417 2.851,-2.61 2.506,-10.157 2.506,-16.077 -10e-4,-12.475 0,-24.193 0,-37.166 -10e-4,-7.677 0.41,-16.654 -7.412,-15.659 -6.623,0.839 -5.742,10.235 -5.742,17.643 m 4.071,-26.101 c 7.415,-0.579 14.047,1.159 16.809,6.578 2.97,5.829 2.714,15.851 2.714,25.264 10e-4,9.575 0,18.499 0,27.873 10e-4,9.199 -0.147,18.771 -4.593,23.387 -4.34,4.503 -15.133,5.618 -21.819,2.088 -6.39,-3.375 -7.168,-11.501 -7.517,-21.611 -0.244,-7.055 0,-13.255 0,-19.941 0,-6.805 -0.151,-13.781 0,-20.043 0.146,-6.139 0.558,-13.015 2.714,-17.227 2.097,-4.095 6.452,-5.958 11.692,-6.368"
         style="fill:#f2f3f3;fill-opacity:1"
         id="path20"
         inkscape:connector-curvature="0" /><path
         d="m 657.486,182.844 h -9.918 c 10e-4,-18.346 -10e-4,-37.662 0,-56.69 0,-5.993 0.677,-13.366 -1.565,-17.328 -1.468,-2.597 -5.872,-3.822 -8.98,-1.88 -3.815,2.386 -3.339,10.276 -3.339,16.495 v 59.298 c -3.133,0.243 -6.716,0.035 -10.022,0.105 v -83.31 h 9.29 c 0.272,1.573 0.452,3.236 0.626,4.906 2.349,-3.195 5.394,-6.46 10.65,-6.89 13.372,-1.093 13.258,10.381 13.258,23.071 10e-4,20.397 0,43.105 0,62.223"
         style="fill:#f2f3f3;fill-opacity:1"
         id="path22"
         inkscape:connector-curvature="0" /><path
         d="m 598.396,99.534 h 9.918 c -0.07,27.736 0.14,55.747 -0.104,83.31 h -9.814 c -0.244,-27.456 -0.034,-55.366 -0.104,-82.997 -0.009,-0.148 -0.018,-0.294 0.104,-0.313"
         style="fill:#f2f3f3;fill-opacity:1"
         id="path24"
         inkscape:connector-curvature="0" /><path
         d="m 672.832,99.534 h 9.919 c 0.002,17.894 -0.002,37.717 0,56.688 0,7.36 -1.14,17.744 4.279,19.733 3.185,1.166 6.451,-0.116 7.727,-2.194 2.359,-3.844 1.774,-11.261 1.774,-17.226 -10e-4,-19.007 0.002,-38.493 0,-57.001 h 10.126 v 83.205 c -2.888,0.243 -6.227,0.035 -9.291,0.105 -0.375,-1.573 -0.577,-3.321 -0.835,-5.011 -2.139,3.971 -6.888,7.06 -13.259,6.786 -10.625,-0.459 -10.545,-11.528 -10.544,-22.864 0.002,-20.539 -0.002,-41.962 0,-61.908 -0.009,-0.148 -0.018,-0.294 0.104,-0.313"
         style="fill:#f2f3f3;fill-opacity:1"
         id="path26"
         inkscape:connector-curvature="0" /><path
         d="m 716.994,99.534 h 10.334 c 2.417,10.145 4.773,20.352 7.1,30.588 2.451,-10.077 4.67,-20.385 6.995,-30.588 h 9.5 c -3.514,12.367 -6.88,24.96 -10.439,37.689 -0.242,0.86 -0.719,1.771 -0.731,2.399 -0.028,1.307 1.179,4.081 1.566,5.429 3.619,12.62 7.127,25.314 10.752,37.793 h -10.752 c -2.735,-11.428 -5.515,-22.812 -8.143,-34.348 -2.843,11.323 -5.461,22.867 -8.144,34.348 h -9.499 c 3.635,-12.486 7.165,-25.186 10.856,-38.001 0.505,-1.753 1.545,-3.822 1.567,-5.325 0.017,-1.353 -0.913,-3.403 -1.358,-5.011 -3.205,-11.569 -6.396,-23.236 -9.604,-34.66 0.021,-0.18 -0.178,-0.271 0,-0.313"
         style="fill:#f2f3f3;fill-opacity:1"
         id="path28"
         inkscape:connector-curvature="0" /></g><g
       id="g5680"><path
         id="path2973"
         d="M20.077,215.07c0.024,-9.23 7.87,-22.116 19.019,-33.822c7.45,-7.824 15.016,-14.691 31.511,-28.755c-11.41,-6.26 -29.154,-13.813 -38.058,-23.705c-3.294,-3.661 -9.266,-11.953 -8.107,-23.032c2.36,-22.58 30.231,-56.848 69.846,-64.092c13.181,-2.411 28.315,-0.671 40.771,4.929c39.075,17.567 86.863,61.211 92.743,82.522c2.069,7.5 1.671,19.457 -1.896,26.12c-4.422,8.259 -19.73,25.033 -40.673,42.342c-32.862,27.159 -78.911,56.321 -113.295,61.229c-11.111,1.585 -22.462,-0.069 -30.427,-4.563c-12.464,-7.033 -16.601,-16.422 -18.055,-19.236c-3.867,-7.484 -3.387,-16.964 -3.379,-19.937ZM112.562,111.374c0.424,-5.233 20.945,-0.023 19.648,4.121c-1.368,4.372 -20.135,1.883 -19.648,-4.121Z"
         style="fill:url(#_Linear1);" /><g
         id="mid"><path
           id="path2975"
           d="M81.713,143.846c-10.799,9.118 -17.979,15.265 -26.98,23.492c-21.677,19.812 -36.405,34.893 -28.812,55.508c8.76,23.78 27.961,22.574 50.478,18.154c58.04,-11.447 153.446,-84.794 148.583,-111.885c-3.935,-21.922 -57.237,-65.504 -88.796,-81.013c-9.86,-4.845 -21.222,-7.351 -32.619,-6.814c-43.396,2.048 -77.285,41.557 -75.554,62.964c1.684,20.827 54.321,38.973 53.7,39.594ZM75.199,71.142c-13.058,14.528 -4.709,42.636 16.945,57.957c25.339,17.927 66.372,21.173 74.538,7.347c15.231,-25.787 -1.399,-53.055 -26.223,-65.218c-24.531,-12.02 -57.121,-9.142 -65.26,-0.086l0,0Z"
           style="fill:url(#_Linear2);" /><path
           id="path4976"
           d="M119.731,128.489c18.331,2.548 34.133,-4.793 36.604,-22.895c1.882,-13.789 -19.222,-28.855 -31.91,-32.33c-10.595,-2.902 -33.598,0.83 -35.149,20.869c-1.612,20.832 19.765,32.871 30.455,34.356ZM110.753,93.842c-12.047,18.664 17.493,24.402 22.015,20.998c19.498,-14.674 -16.707,-29.221 -22.015,-20.998Z"
           style="fill:url(#_Radial3);" /></g><path
         id="path2977"
         d="M100.069,46.247c-21.311,2.246 -25.392,4.988 -44.698,19.595c-6.47,4.895 -18.379,16.807 -21.43,30.938c-1.163,5.382 0.211,10.028 4.087,13.286c12.411,10.435 33.184,18.9 50.226,27.083c4.991,2.397 1.686,6.743 -6.363,13.712c-20.312,17.584 -47.773,38.989 -49.69,55.299c-0.904,7.686 1.727,18.13 11.056,23.475c10.898,6.243 33.52,2.168 48.626,-3.457c22.074,-8.22 51.07,-26.361 74.09,-44.193c23.938,-18.544 46.196,-42.096 47.297,-45.938c1.352,-4.717 1.217,-9.074 -1.392,-14.083c-4.097,-7.866 -9.575,-13.712 -15.457,-20.254c-15.782,-16.638 -32.479,-31.257 -52.457,-42.46c-14.427,-8.091 -27.12,-14.771 -43.895,-13.003ZM131.373,83.547c15.396,7.444 31.206,26.995 -0.137,38.248c-8.523,3.06 -35.554,-7.515 -34.726,-21.946c1.206,-21.319 16.064,-25.39 34.863,-16.302l0,0Z"
         style="fill:url(#_Radial4);" /></g><g
       id="g875"><g
         aria-label="powered by"
         transform="translate(20.373514,-0.35355339)"
         style="font-style:normal;font-weight:normal;font-size:40px;line-height:1.25;font-family:sans-serif;letter-spacing:0px;word-spacing:0px;fill:#f2f3f3;fill-opacity:1;stroke:none"
         id="flowRoot879"><path
           d="m 539.88753,60.966748 q 4.224,0 6.784,2.944 2.60266,2.944 2.60266,8.874667 0,5.845333 -2.60266,8.874667 -2.56,3.029333 -6.82667,3.029333 -2.64533,0 -4.39467,-0.981333 -1.70666,-1.024 -2.688,-2.346667 h -0.256 q 0.0853,0.725334 0.17067,1.834667 0.0853,1.109333 0.0853,1.92 v 9.386667 h -3.75466 V 61.393415 h 3.072 l 0.512,3.114666 h 0.17066 q 1.024,-1.493333 2.688,-2.517333 1.664,-1.024 4.43734,-1.024 z m -0.68267,3.157333 q -3.49867,0 -4.94933,1.962667 -1.408,1.962667 -1.49334,5.973334 v 0.725333 q 0,4.224 1.36534,6.528 1.408,2.261333 5.16266,2.261333 2.09067,0 3.41334,-1.152 1.36533,-1.152 2.00533,-3.114666 0.68267,-2.005334 0.68267,-4.565334 0,-3.925333 -1.536,-6.272 -1.49334,-2.346667 -4.65067,-2.346667 z"
           style="font-style:normal;font-variant:normal;font-weight:normal;font-stretch:normal;font-size:42.66666794px;font-family:'Noto Sans';-inkscape-font-specification:'Noto Sans, Normal';font-variant-ligatures:normal;font-variant-caps:normal;font-variant-numeric:normal;font-feature-settings:normal;text-align:start;writing-mode:lr-tb;text-anchor:start;fill:#f2f3f3;fill-opacity:1"
           id="path887" /><path
           d="m 575.14019,72.785415 q 0,5.674667 -2.90133,8.789333 -2.85867,3.114667 -7.76533,3.114667 -3.02934,0 -5.41867,-1.365333 -2.34667,-1.408 -3.712,-4.053334 -1.36533,-2.688 -1.36533,-6.485333 0,-5.674667 2.85866,-8.746667 2.85867,-3.072 7.76534,-3.072 3.11466,0 5.46133,1.408 2.38933,1.365333 3.712,4.010667 1.36533,2.602666 1.36533,6.4 z m -17.28,0 q 0,4.053333 1.57867,6.442667 1.62133,2.346666 5.12,2.346666 3.456,0 5.07733,-2.346666 1.62134,-2.389334 1.62134,-6.442667 0,-4.053334 -1.62134,-6.357334 -1.62133,-2.304 -5.12,-2.304 -3.49866,0 -5.07733,2.304 -1.57867,2.304 -1.57867,6.357334 z"
           style="font-style:normal;font-variant:normal;font-weight:normal;font-stretch:normal;font-size:42.66666794px;font-family:'Noto Sans';-inkscape-font-specification:'Noto Sans, Normal';font-variant-ligatures:normal;font-variant-caps:normal;font-variant-numeric:normal;font-feature-settings:normal;text-align:start;writing-mode:lr-tb;text-anchor:start;fill:#f2f3f3;fill-opacity:1"
           id="path889" /><path
           d="m 598.94553,84.220082 -3.92534,-12.885334 q -0.55466,-1.749333 -0.98133,-3.413333 -0.384,-1.706667 -0.59733,-2.645334 h -0.17067 q -0.17067,0.938667 -0.55467,2.645334 -0.384,1.664 -0.98133,3.456 l -4.096,12.842667 h -4.26667 l -6.272,-22.869334 h 3.88267 l 3.15733,12.202667 q 0.46934,1.834667 0.896,3.712 0.42667,1.877333 0.59734,3.114667 h 0.17066 q 0.17067,-0.725334 0.384,-1.792 0.256,-1.066667 0.55467,-2.218667 0.29867,-1.194667 0.59733,-2.133333 l 4.05334,-12.885334 h 4.096 l 3.92533,12.885334 q 0.46933,1.450666 0.896,3.157333 0.46933,1.706667 0.64,2.944 h 0.17067 q 0.128,-1.066667 0.55466,-2.944 0.46934,-1.877333 0.98134,-3.84 l 3.2,-12.202667 h 3.84 l -6.35734,22.869334 z"
           style="font-style:normal;font-variant:normal;font-weight:normal;font-stretch:normal;font-size:42.66666794px;font-family:'Noto Sans';-inkscape-font-specification:'Noto Sans, Normal';font-variant-ligatures:normal;font-variant-caps:normal;font-variant-numeric:normal;font-feature-settings:normal;text-align:start;writing-mode:lr-tb;text-anchor:start;fill:#f2f3f3;fill-opacity:1"
           id="path891" /><path
           d="m 622.58953,60.966748 q 2.944,0 5.03466,1.28 2.13334,1.28 3.24267,3.626667 1.152,2.304 1.152,5.418667 v 2.261333 h -15.65867 q 0.0853,3.882667 1.96267,5.930667 1.92,2.005333 5.33333,2.005333 2.176,0 3.84,-0.384 1.70667,-0.426667 3.49867,-1.194667 v 3.285334 q -1.74933,0.768 -3.456,1.109333 -1.70667,0.384 -4.05333,0.384 -3.24267,0 -5.76,-1.322666 -2.47467,-1.322667 -3.88267,-3.925334 -1.36533,-2.645333 -1.36533,-6.442667 0,-3.754667 1.23733,-6.442667 1.28,-2.688 3.54133,-4.138666 2.304,-1.450667 5.33334,-1.450667 z m -0.0427,3.072 q -2.688,0 -4.26667,1.749333 -1.536,1.706667 -1.83466,4.778667 h 11.648 q -0.0427,-2.901333 -1.36534,-4.693333 -1.32266,-1.834667 -4.18133,-1.834667 z"
           style="font-style:normal;font-variant:normal;font-weight:normal;font-stretch:normal;font-size:42.66666794px;font-family:'Noto Sans';-inkscape-font-specification:'Noto Sans, Normal';font-variant-ligatures:normal;font-variant-caps:normal;font-variant-numeric:normal;font-feature-settings:normal;text-align:start;writing-mode:lr-tb;text-anchor:start;fill:#f2f3f3;fill-opacity:1"
           id="path893" /><path
           d="m 648.50753,60.966748 q 0.64,0 1.36533,0.08533 0.768,0.04267 1.32267,0.170667 l -0.46933,3.456 q -0.55467,-0.128 -1.23734,-0.213333 -0.64,-0.08533 -1.23733,-0.08533 -1.74933,0 -3.28533,0.981334 -1.536,0.938666 -2.47467,2.688 -0.896,1.706666 -0.896,4.010667 v 12.202667 h -3.75467 V 61.393415 h 3.072 l 0.42667,4.181333 h 0.17067 q 1.10933,-1.877333 2.85866,-3.242667 1.74934,-1.365333 4.13867,-1.365333 z"
           style="font-style:normal;font-variant:normal;font-weight:normal;font-stretch:normal;font-size:42.66666794px;font-family:'Noto Sans';-inkscape-font-specification:'Noto Sans, Normal';font-variant-ligatures:normal;font-variant-caps:normal;font-variant-numeric:normal;font-feature-settings:normal;text-align:start;writing-mode:lr-tb;text-anchor:start;fill:#f2f3f3;fill-opacity:1"
           id="path895" /><path
           d="m 663.42286,60.966748 q 2.944,0 5.03467,1.28 2.13333,1.28 3.24267,3.626667 1.152,2.304 1.152,5.418667 v 2.261333 h -15.65867 q 0.0853,3.882667 1.96267,5.930667 1.92,2.005333 5.33333,2.005333 2.176,0 3.84,-0.384 1.70667,-0.426667 3.49867,-1.194667 v 3.285334 q -1.74934,0.768 -3.456,1.109333 -1.70667,0.384 -4.05334,0.384 -3.24266,0 -5.76,-1.322666 -2.47466,-1.322667 -3.88266,-3.925334 -1.36534,-2.645333 -1.36534,-6.442667 0,-3.754667 1.23734,-6.442667 1.28,-2.688 3.54133,-4.138666 2.304,-1.450667 5.33333,-1.450667 z m -0.0427,3.072 q -2.688,0 -4.26667,1.749333 -1.536,1.706667 -1.83467,4.778667 h 11.648 q -0.0427,-2.901333 -1.36533,-4.693333 -1.32267,-1.834667 -4.18133,-1.834667 z"
           style="font-style:normal;font-variant:normal;font-weight:normal;font-stretch:normal;font-size:42.66666794px;font-family:'Noto Sans';-inkscape-font-specification:'Noto Sans, Normal';font-variant-ligatures:normal;font-variant-caps:normal;font-variant-numeric:normal;font-feature-settings:normal;text-align:start;writing-mode:lr-tb;text-anchor:start;fill:#f2f3f3;fill-opacity:1"
           id="path897" /><path
           d="m 686.78086,84.689415 q -4.26666,0 -6.82666,-2.944 -2.56,-2.986667 -2.56,-8.874667 0,-5.888 2.56,-8.874667 2.60266,-3.029333 6.86933,-3.029333 2.64533,0 4.30933,0.981333 1.70667,0.981334 2.77334,2.389334 h 0.256 q -0.0427,-0.554667 -0.17067,-1.621334 -0.0853,-1.109333 -0.0853,-1.749333 v -9.130667 h 3.75467 v 32.426668 h -3.02934 l -0.55466,-3.072001 h -0.17067 q -1.024,1.450667 -2.73067,2.474667 -1.70667,1.024 -4.39467,1.024 z m 0.59734,-3.114667 q 3.62666,0 5.07733,-1.962666 1.49334,-2.005334 1.49334,-6.016 v -0.682667 q 0,-4.266667 -1.40801,-6.528 -1.408,-2.304 -5.20533,-2.304 -3.02933,0 -4.56533,2.432 -1.49334,2.389333 -1.49334,6.442667 0,4.096 1.49334,6.357333 1.536,2.261333 4.608,2.261333 z"
           style="font-style:normal;font-variant:normal;font-weight:normal;font-stretch:normal;font-size:42.66666794px;font-family:'Noto Sans';-inkscape-font-specification:'Noto Sans, Normal';font-variant-ligatures:normal;font-variant-caps:normal;font-variant-numeric:normal;font-feature-settings:normal;text-align:start;writing-mode:lr-tb;text-anchor:start;fill:#f2f3f3;fill-opacity:1"
           id="path899" /><path
           d="m 719.76219,51.836081 v 7.893334 q 0,1.450666 -0.0853,2.730666 -0.0427,1.237334 -0.128,1.962667 h 0.21333 q 0.98134,-1.450667 2.688,-2.432 1.70667,-0.981333 4.39467,-0.981333 4.26667,0 6.82667,2.986666 2.60266,2.944 2.60266,8.832001 0,5.888 -2.60266,8.874666 -2.60267,2.986667 -6.82667,2.986667 -2.688,0 -4.39467,-0.981333 -1.70666,-0.981333 -2.688,-2.346667 h -0.29866 l -0.768,2.901334 h -2.688 V 51.836081 Z m 6.44267,12.288 q -3.62667,0 -5.03467,2.090667 -1.408,2.090667 -1.408,6.485334 v 0.170666 q 0,4.224 1.36534,6.485334 1.408,2.218666 5.16266,2.218666 3.072,0 4.56534,-2.261333 1.536,-2.261333 1.536,-6.528 0,-8.661334 -6.18667,-8.661334 z"
           style="font-style:normal;font-variant:normal;font-weight:normal;font-stretch:normal;font-size:42.66666794px;font-family:'Noto Sans';-inkscape-font-specification:'Noto Sans, Normal';font-variant-ligatures:normal;font-variant-caps:normal;font-variant-numeric:normal;font-feature-settings:normal;text-align:start;writing-mode:lr-tb;text-anchor:start;fill:#f2f3f3;fill-opacity:1"
           id="path901" /><path
           d="m 737.8402,61.393415 h 4.01066 l 4.94934,13.013333 q 0.64,1.706667 1.152,3.285334 0.512,1.536 0.768,2.944 h 0.17066 q 0.256,-1.066667 0.81067,-2.773334 0.55467,-1.749333 1.152,-3.498666 l 4.65067,-12.970667 h 4.05333 l -9.856,26.026667 q -1.19467,3.242667 -3.11467,5.162667 -1.87733,1.92 -5.20533,1.92 -1.024,0 -1.792,-0.128 -0.768,-0.08533 -1.32267,-0.213333 v -2.986667 q 0.46934,0.08533 1.10934,0.170666 0.68266,0.08533 1.408,0.08533 1.96266,0 3.15733,-1.109334 1.23733,-1.109333 1.92,-2.944 l 1.19467,-3.029333 z"
           style="font-style:normal;font-variant:normal;font-weight:normal;font-stretch:normal;font-size:42.66666794px;font-family:'Noto Sans';-inkscape-font-specification:'Noto Sans, Normal';font-variant-ligatures:normal;font-variant-caps:normal;font-variant-numeric:normal;font-feature-settings:normal;text-align:start;writing-mode:lr-tb;text-anchor:start;fill:#f2f3f3;fill-opacity:1"
           id="path903" /></g></g></g><defs
     id="defs91"><linearGradient
       id="_Linear1"
       x1="0"
       y1="0"
       x2="1"
       y2="0"
       gradientUnits="userSpaceOnUse"
       gradientTransform="matrix(137.32,719.201,-719.201,137.32,-12.7656,-459.807)"><stop
         offset="0%"
         style="stop-color:#fff;stop-opacity:1"
         id="stop39" /><stop
         offset="34%"
         style="stop-color:#fff;stop-opacity:1"
         id="stop41" /><stop
         offset="51%"
         style="stop-color:#bebdf3;stop-opacity:1"
         id="stop43" /><stop
         offset="75%"
         style="stop-color:#867fb7;stop-opacity:1"
         id="stop45" /><stop
         offset="87%"
         style="stop-color:#9f99c7;stop-opacity:1"
         id="stop47" /><stop
         offset="100%"
         style="stop-color:#524c76;stop-opacity:1"
         id="stop49" /></linearGradient><linearGradient
       id="_Linear2"
       x1="0"
       y1="0"
       x2="1"
       y2="0"
       gradientUnits="userSpaceOnUse"
       gradientTransform="matrix(-41.4782,-185.977,185.977,-41.4782,156.163,202.263)"><stop
         offset="0%"
         style="stop-color:#fff;stop-opacity:1"
         id="stop52" /><stop
         offset="34%"
         style="stop-color:#fff;stop-opacity:1"
         id="stop54" /><stop
         offset="51%"
         style="stop-color:#bebbdb;stop-opacity:1"
         id="stop56" /><stop
         offset="75%"
         style="stop-color:#928bbe;stop-opacity:1"
         id="stop58" /><stop
         offset="87%"
         style="stop-color:#9f99c7;stop-opacity:1"
         id="stop60" /><stop
         offset="100%"
         style="stop-color:#524c76;stop-opacity:1"
         id="stop62" /></linearGradient><radialGradient
       id="_Radial3"
       cx="0"
       cy="0"
       r="1"
       gradientUnits="userSpaceOnUse"
       gradientTransform="matrix(36.9132,0,0,28.2927,107.505,89.2005)"><stop
         offset="0%"
         style="stop-color:#fff;stop-opacity:1"
         id="stop65" /><stop
         offset="34%"
         style="stop-color:#fff;stop-opacity:1"
         id="stop67" /><stop
         offset="51%"
         style="stop-color:#bebbdb;stop-opacity:1"
         id="stop69" /><stop
         offset="75%"
         style="stop-color:#928bbe;stop-opacity:1"
         id="stop71" /><stop
         offset="87%"
         style="stop-color:#9f99c7;stop-opacity:1"
         id="stop73" /><stop
         offset="100%"
         style="stop-color:#524c76;stop-opacity:1"
         id="stop75" /></radialGradient><radialGradient
       id="_Radial4"
       cx="0"
       cy="0"
       r="1"
       gradientUnits="userSpaceOnUse"
       gradientTransform="matrix(-5.06038,321.086,-273.845,-4.31164,23.522,98.2549)"><stop
         offset="0%"
         style="stop-color:#fff;stop-opacity:1"
         id="stop78" /><stop
         offset="34%"
         style="stop-color:#fff;stop-opacity:1"
         id="stop80" /><stop
         offset="51%"
         style="stop-color:#bebbdb;stop-opacity:1"
         id="stop82" /><stop
         offset="75%"
         style="stop-color:#928bbe;stop-opacity:1"
         id="stop84" /><stop
         offset="87%"
         style="stop-color:#9f99c7;stop-opacity:1"
         id="stop86" /><stop
         offset="100%"
         style="stop-color:#524c76;stop-opacity:1"
         id="stop88" /></radialGradient></defs></svg>
