<?xml version="1.0" encoding="UTF-8" standalone="no"?>
<svg
   xmlns:dc="http://purl.org/dc/elements/1.1/"
   xmlns:cc="http://creativecommons.org/ns#"
   xmlns:rdf="http://www.w3.org/1999/02/22-rdf-syntax-ns#"
   xmlns:svg="http://www.w3.org/2000/svg"
   xmlns="http://www.w3.org/2000/svg"
   xmlns:sodipodi="http://sodipodi.sourceforge.net/DTD/sodipodi-0.dtd"
   xmlns:inkscape="http://www.inkscape.org/namespaces/inkscape"
   width="100%"
   height="100%"
   viewBox="0 0 800 300"
   version="1.1"
   xml:space="preserve"
   style="fill-rule:evenodd;clip-rule:evenodd;stroke-linejoin:round;stroke-miterlimit:1.41421;"
   id="svg93"
   sodipodi:docname="powered-by-kde-plasma-1.svg"
   inkscape:version="0.92.4 5da689c313, 2019-01-14"><metadata
     id="metadata97"><rdf:RDF><cc:Work
         rdf:about=""><dc:format>image/svg+xml</dc:format><dc:type
           rdf:resource="http://purl.org/dc/dcmitype/StillImage" /><dc:title /></cc:Work></rdf:RDF></metadata><sodipodi:namedview
     pagecolor="#ffffff"
     bordercolor="#666666"
     borderopacity="1"
     objecttolerance="10"
     gridtolerance="10"
     guidetolerance="10"
     inkscape:pageopacity="0"
     inkscape:pageshadow="2"
     inkscape:window-width="1920"
     inkscape:window-height="1015"
     id="namedview95"
     showgrid="false"
     showguides="true"
     inkscape:guide-bbox="true"
     inkscape:zoom="2"
     inkscape:cx="41.34346"
     inkscape:cy="220.95552"
     inkscape:window-x="0"
     inkscape:window-y="0"
     inkscape:window-maximized="1"
     inkscape:current-layer="Ebene-1"
     inkscape:pagecheckerboard="true"><sodipodi:guide
       position="70.218374,40.625"
       orientation="0,1"
       id="guide4617"
       inkscape:locked="false" /><sodipodi:guide
       position="779.97392,146.7992"
       orientation="1,0"
       id="guide4619"
       inkscape:locked="false" /><sodipodi:guide
       position="115.02259,259.4503"
       orientation="0,1"
       id="guide4629"
       inkscape:locked="false" /><sodipodi:guide
       position="383.06641,156.48047"
       orientation="0,1"
       id="guide875"
       inkscape:locked="false" /><sodipodi:guide
       position="379.30859,73.179688"
       orientation="0,1"
       id="guide877"
       inkscape:locked="false" /><sodipodi:guide
       position="276.12109,127.48828"
       orientation="1,0"
       id="guide879"
       inkscape:locked="false" /><sodipodi:guide
       position="779.9375,147.375"
       orientation="1,0"
       id="guide881"
       inkscape:locked="false" /><sodipodi:guide
       position="229.0584,153.77363"
       orientation="1,0"
       id="guide883"
       inkscape:locked="false" /><sodipodi:guide
       position="20.046875,122.75"
       orientation="1,0"
       id="guide885"
       inkscape:locked="false" /><sodipodi:guide
       position="57.761785,40.614446"
       orientation="0,1"
       id="guide887"
       inkscape:locked="false" /><sodipodi:guide
       position="117.08694,259.39218"
       orientation="0,1"
       id="guide889"
       inkscape:locked="false" /></sodipodi:namedview><g
     id="Ebene-1"><g
       id="g875"><g
         aria-label="powered by"
         transform="translate(20.373514,-0.35355339)"
         style="font-style:normal;font-weight:normal;font-size:40px;line-height:1.25;font-family:sans-serif;letter-spacing:0px;word-spacing:0px;fill:#f2f3f3;fill-opacity:1;stroke:none"
         id="flowRoot879"><path
           d="m 539.88753,60.966748 q 4.224,0 6.784,2.944 2.60266,2.944 2.60266,8.874667 0,5.845333 -2.60266,8.874667 -2.56,3.029333 -6.82667,3.029333 -2.64533,0 -4.39467,-0.981333 -1.70666,-1.024 -2.688,-2.346667 h -0.256 q 0.0853,0.725334 0.17067,1.834667 0.0853,1.109333 0.0853,1.92 v 9.386667 h -3.75466 V 61.393415 h 3.072 l 0.512,3.114666 h 0.17066 q 1.024,-1.493333 2.688,-2.517333 1.664,-1.024 4.43734,-1.024 z m -0.68267,3.157333 q -3.49867,0 -4.94933,1.962667 -1.408,1.962667 -1.49334,5.973334 v 0.725333 q 0,4.224 1.36534,6.528 1.408,2.261333 5.16266,2.261333 2.09067,0 3.41334,-1.152 1.36533,-1.152 2.00533,-3.114666 0.68267,-2.005334 0.68267,-4.565334 0,-3.925333 -1.536,-6.272 -1.49334,-2.346667 -4.65067,-2.346667 z"
           style="font-style:normal;font-variant:normal;font-weight:normal;font-stretch:normal;font-size:42.66666794px;font-family:'Noto Sans';-inkscape-font-specification:'Noto Sans, Normal';font-variant-ligatures:normal;font-variant-caps:normal;font-variant-numeric:normal;font-feature-settings:normal;text-align:start;writing-mode:lr-tb;text-anchor:start;fill:#f2f3f3;fill-opacity:1"
           id="path887" /><path
           d="m 575.14019,72.785415 q 0,5.674667 -2.90133,8.789333 -2.85867,3.114667 -7.76533,3.114667 -3.02934,0 -5.41867,-1.365333 -2.34667,-1.408 -3.712,-4.053334 -1.36533,-2.688 -1.36533,-6.485333 0,-5.674667 2.85866,-8.746667 2.85867,-3.072 7.76534,-3.072 3.11466,0 5.46133,1.408 2.38933,1.365333 3.712,4.010667 1.36533,2.602666 1.36533,6.4 z m -17.28,0 q 0,4.053333 1.57867,6.442667 1.62133,2.346666 5.12,2.346666 3.456,0 5.07733,-2.346666 1.62134,-2.389334 1.62134,-6.442667 0,-4.053334 -1.62134,-6.357334 -1.62133,-2.304 -5.12,-2.304 -3.49866,0 -5.07733,2.304 -1.57867,2.304 -1.57867,6.357334 z"
           style="font-style:normal;font-variant:normal;font-weight:normal;font-stretch:normal;font-size:42.66666794px;font-family:'Noto Sans';-inkscape-font-specification:'Noto Sans, Normal';font-variant-ligatures:normal;font-variant-caps:normal;font-variant-numeric:normal;font-feature-settings:normal;text-align:start;writing-mode:lr-tb;text-anchor:start;fill:#f2f3f3;fill-opacity:1"
           id="path889" /><path
           d="m 598.94553,84.220082 -3.92534,-12.885334 q -0.55466,-1.749333 -0.98133,-3.413333 -0.384,-1.706667 -0.59733,-2.645334 h -0.17067 q -0.17067,0.938667 -0.55467,2.645334 -0.384,1.664 -0.98133,3.456 l -4.096,12.842667 h -4.26667 l -6.272,-22.869334 h 3.88267 l 3.15733,12.202667 q 0.46934,1.834667 0.896,3.712 0.42667,1.877333 0.59734,3.114667 h 0.17066 q 0.17067,-0.725334 0.384,-1.792 0.256,-1.066667 0.55467,-2.218667 0.29867,-1.194667 0.59733,-2.133333 l 4.05334,-12.885334 h 4.096 l 3.92533,12.885334 q 0.46933,1.450666 0.896,3.157333 0.46933,1.706667 0.64,2.944 h 0.17067 q 0.128,-1.066667 0.55466,-2.944 0.46934,-1.877333 0.98134,-3.84 l 3.2,-12.202667 h 3.84 l -6.35734,22.869334 z"
           style="font-style:normal;font-variant:normal;font-weight:normal;font-stretch:normal;font-size:42.66666794px;font-family:'Noto Sans';-inkscape-font-specification:'Noto Sans, Normal';font-variant-ligatures:normal;font-variant-caps:normal;font-variant-numeric:normal;font-feature-settings:normal;text-align:start;writing-mode:lr-tb;text-anchor:start;fill:#f2f3f3;fill-opacity:1"
           id="path891" /><path
           d="m 622.58953,60.966748 q 2.944,0 5.03466,1.28 2.13334,1.28 3.24267,3.626667 1.152,2.304 1.152,5.418667 v 2.261333 h -15.65867 q 0.0853,3.882667 1.96267,5.930667 1.92,2.005333 5.33333,2.005333 2.176,0 3.84,-0.384 1.70667,-0.426667 3.49867,-1.194667 v 3.285334 q -1.74933,0.768 -3.456,1.109333 -1.70667,0.384 -4.05333,0.384 -3.24267,0 -5.76,-1.322666 -2.47467,-1.322667 -3.88267,-3.925334 -1.36533,-2.645333 -1.36533,-6.442667 0,-3.754667 1.23733,-6.442667 1.28,-2.688 3.54133,-4.138666 2.304,-1.450667 5.33334,-1.450667 z m -0.0427,3.072 q -2.688,0 -4.26667,1.749333 -1.536,1.706667 -1.83466,4.778667 h 11.648 q -0.0427,-2.901333 -1.36534,-4.693333 -1.32266,-1.834667 -4.18133,-1.834667 z"
           style="font-style:normal;font-variant:normal;font-weight:normal;font-stretch:normal;font-size:42.66666794px;font-family:'Noto Sans';-inkscape-font-specification:'Noto Sans, Normal';font-variant-ligatures:normal;font-variant-caps:normal;font-variant-numeric:normal;font-feature-settings:normal;text-align:start;writing-mode:lr-tb;text-anchor:start;fill:#f2f3f3;fill-opacity:1"
           id="path893" /><path
           d="m 648.50753,60.966748 q 0.64,0 1.36533,0.08533 0.768,0.04267 1.32267,0.170667 l -0.46933,3.456 q -0.55467,-0.128 -1.23734,-0.213333 -0.64,-0.08533 -1.23733,-0.08533 -1.74933,0 -3.28533,0.981334 -1.536,0.938666 -2.47467,2.688 -0.896,1.706666 -0.896,4.010667 v 12.202667 h -3.75467 V 61.393415 h 3.072 l 0.42667,4.181333 h 0.17067 q 1.10933,-1.877333 2.85866,-3.242667 1.74934,-1.365333 4.13867,-1.365333 z"
           style="font-style:normal;font-variant:normal;font-weight:normal;font-stretch:normal;font-size:42.66666794px;font-family:'Noto Sans';-inkscape-font-specification:'Noto Sans, Normal';font-variant-ligatures:normal;font-variant-caps:normal;font-variant-numeric:normal;font-feature-settings:normal;text-align:start;writing-mode:lr-tb;text-anchor:start;fill:#f2f3f3;fill-opacity:1"
           id="path895" /><path
           d="m 663.42286,60.966748 q 2.944,0 5.03467,1.28 2.13333,1.28 3.24267,3.626667 1.152,2.304 1.152,5.418667 v 2.261333 h -15.65867 q 0.0853,3.882667 1.96267,5.930667 1.92,2.005333 5.33333,2.005333 2.176,0 3.84,-0.384 1.70667,-0.426667 3.49867,-1.194667 v 3.285334 q -1.74934,0.768 -3.456,1.109333 -1.70667,0.384 -4.05334,0.384 -3.24266,0 -5.76,-1.322666 -2.47466,-1.322667 -3.88266,-3.925334 -1.36534,-2.645333 -1.36534,-6.442667 0,-3.754667 1.23734,-6.442667 1.28,-2.688 3.54133,-4.138666 2.304,-1.450667 5.33333,-1.450667 z m -0.0427,3.072 q -2.688,0 -4.26667,1.749333 -1.536,1.706667 -1.83467,4.778667 h 11.648 q -0.0427,-2.901333 -1.36533,-4.693333 -1.32267,-1.834667 -4.18133,-1.834667 z"
           style="font-style:normal;font-variant:normal;font-weight:normal;font-stretch:normal;font-size:42.66666794px;font-family:'Noto Sans';-inkscape-font-specification:'Noto Sans, Normal';font-variant-ligatures:normal;font-variant-caps:normal;font-variant-numeric:normal;font-feature-settings:normal;text-align:start;writing-mode:lr-tb;text-anchor:start;fill:#f2f3f3;fill-opacity:1"
           id="path897" /><path
           d="m 686.78086,84.689415 q -4.26666,0 -6.82666,-2.944 -2.56,-2.986667 -2.56,-8.874667 0,-5.888 2.56,-8.874667 2.60266,-3.029333 6.86933,-3.029333 2.64533,0 4.30933,0.981333 1.70667,0.981334 2.77334,2.389334 h 0.256 q -0.0427,-0.554667 -0.17067,-1.621334 -0.0853,-1.109333 -0.0853,-1.749333 v -9.130667 h 3.75467 v 32.426668 h -3.02934 l -0.55466,-3.072001 h -0.17067 q -1.024,1.450667 -2.73067,2.474667 -1.70667,1.024 -4.39467,1.024 z m 0.59734,-3.114667 q 3.62666,0 5.07733,-1.962666 1.49334,-2.005334 1.49334,-6.016 v -0.682667 q 0,-4.266667 -1.40801,-6.528 -1.408,-2.304 -5.20533,-2.304 -3.02933,0 -4.56533,2.432 -1.49334,2.389333 -1.49334,6.442667 0,4.096 1.49334,6.357333 1.536,2.261333 4.608,2.261333 z"
           style="font-style:normal;font-variant:normal;font-weight:normal;font-stretch:normal;font-size:42.66666794px;font-family:'Noto Sans';-inkscape-font-specification:'Noto Sans, Normal';font-variant-ligatures:normal;font-variant-caps:normal;font-variant-numeric:normal;font-feature-settings:normal;text-align:start;writing-mode:lr-tb;text-anchor:start;fill:#f2f3f3;fill-opacity:1"
           id="path899" /><path
           d="m 719.76219,51.836081 v 7.893334 q 0,1.450666 -0.0853,2.730666 -0.0427,1.237334 -0.128,1.962667 h 0.21333 q 0.98134,-1.450667 2.688,-2.432 1.70667,-0.981333 4.39467,-0.981333 4.26667,0 6.82667,2.986666 2.60266,2.944 2.60266,8.832001 0,5.888 -2.60266,8.874666 -2.60267,2.986667 -6.82667,2.986667 -2.688,0 -4.39467,-0.981333 -1.70666,-0.981333 -2.688,-2.346667 h -0.29866 l -0.768,2.901334 h -2.688 V 51.836081 Z m 6.44267,12.288 q -3.62667,0 -5.03467,2.090667 -1.408,2.090667 -1.408,6.485334 v 0.170666 q 0,4.224 1.36534,6.485334 1.408,2.218666 5.16266,2.218666 3.072,0 4.56534,-2.261333 1.536,-2.261333 1.536,-6.528 0,-8.661334 -6.18667,-8.661334 z"
           style="font-style:normal;font-variant:normal;font-weight:normal;font-stretch:normal;font-size:42.66666794px;font-family:'Noto Sans';-inkscape-font-specification:'Noto Sans, Normal';font-variant-ligatures:normal;font-variant-caps:normal;font-variant-numeric:normal;font-feature-settings:normal;text-align:start;writing-mode:lr-tb;text-anchor:start;fill:#f2f3f3;fill-opacity:1"
           id="path901" /><path
           d="m 737.8402,61.393415 h 4.01066 l 4.94934,13.013333 q 0.64,1.706667 1.152,3.285334 0.512,1.536 0.768,2.944 h 0.17066 q 0.256,-1.066667 0.81067,-2.773334 0.55467,-1.749333 1.152,-3.498666 l 4.65067,-12.970667 h 4.05333 l -9.856,26.026667 q -1.19467,3.242667 -3.11467,5.162667 -1.87733,1.92 -5.20533,1.92 -1.024,0 -1.792,-0.128 -0.768,-0.08533 -1.32267,-0.213333 v -2.986667 q 0.46934,0.08533 1.10934,0.170666 0.68266,0.08533 1.408,0.08533 1.96266,0 3.15733,-1.109334 1.23733,-1.109333 1.92,-2.944 l 1.19467,-3.029333 z"
           style="font-style:normal;font-variant:normal;font-weight:normal;font-stretch:normal;font-size:42.66666794px;font-family:'Noto Sans';-inkscape-font-specification:'Noto Sans, Normal';font-variant-ligatures:normal;font-variant-caps:normal;font-variant-numeric:normal;font-feature-settings:normal;text-align:start;writing-mode:lr-tb;text-anchor:start;fill:#f2f3f3;fill-opacity:1"
           id="path903" /></g></g><g
       aria-label="KDE Plasma"
       transform="matrix(1.3072881,0,0,1.3594969,-100.09871,-11.245388)"
       style="font-style:normal;font-weight:normal;font-size:40px;line-height:1.25;font-family:sans-serif;letter-spacing:0px;word-spacing:0px;fill:#f2f3f3;fill-opacity:1;stroke:none"
       id="flowRoot910"><path
         d="m 294.61733,153.60519 7.936,-9.216 17.57867,30.72 h 8.78933 l -21.504,-36.52267 20.992,-24.74667 h -9.38666 l -24.40534,29.696 v -29.696 h -6.82666 v 61.26934 h 6.82666 z"
         style="font-style:normal;font-variant:normal;font-weight:normal;font-stretch:condensed;font-size:85.33333588px;font-family:'Nimbus Sans L';-inkscape-font-specification:'Nimbus Sans L, Condensed';font-variant-ligatures:normal;font-variant-caps:normal;font-variant-numeric:normal;font-feature-settings:normal;text-align:start;writing-mode:lr-tb;text-anchor:start;fill:#f2f3f3;fill-opacity:1"
         id="path867" /><path
         d="m 334.79867,175.10919 h 20.13867 c 5.80266,0 10.83733,-2.304 14.25066,-6.57067 4.608,-5.888 7.168,-14.592 7.168,-24.74667 0,-18.176 -8.27733,-29.952 -21.16266,-29.952 h -20.39467 z m 6.82666,-54.18667 H 354.34 c 9.64267,0 15.01867,8.36267 15.01867,23.552 0,14.592 -5.54667,23.552 -14.592,23.552 h -13.14134 z"
         style="font-style:normal;font-variant:normal;font-weight:normal;font-stretch:condensed;font-size:85.33333588px;font-family:'Nimbus Sans L';-inkscape-font-specification:'Nimbus Sans L, Condensed';font-variant-ligatures:normal;font-variant-caps:normal;font-variant-numeric:normal;font-feature-settings:normal;text-align:start;writing-mode:lr-tb;text-anchor:start;fill:#f2f3f3;fill-opacity:1"
         id="path869" /><path
         d="m 422.76001,167.68519 h -30.208 v -20.30934 h 27.392 v -7.424 h -27.392 v -18.688 h 29.696 v -7.424 h -36.52267 v 61.26934 h 37.03467 z"
         style="font-style:normal;font-variant:normal;font-weight:normal;font-stretch:condensed;font-size:85.33333588px;font-family:'Nimbus Sans L';-inkscape-font-specification:'Nimbus Sans L, Condensed';font-variant-ligatures:normal;font-variant-caps:normal;font-variant-numeric:normal;font-feature-settings:normal;text-align:start;writing-mode:lr-tb;text-anchor:start;fill:#f2f3f3;fill-opacity:1"
         id="path871" /><path
         d="m 458.71868,149.25319 h 15.70133 c 9.04533,0 14.93333,-7.168 14.93333,-18.09067 0,-10.41067 -5.97333,-17.32267 -14.93333,-17.32267 h -22.528 v 61.26934 h 6.82667 z m 0,-28.33067 h 13.65333 c 6.74133,0 9.984,3.41333 9.984,10.496 0,7.168 -3.41333,10.752 -10.24,10.752 h -13.39733 z"
         style="font-style:normal;font-variant:normal;font-weight:normal;font-stretch:condensed;font-size:85.33333588px;font-family:'Nimbus Sans L';-inkscape-font-specification:'Nimbus Sans L, Condensed';font-variant-ligatures:normal;font-variant-caps:normal;font-variant-numeric:normal;font-feature-settings:normal;text-align:start;writing-mode:lr-tb;text-anchor:start;fill:#f2f3f3;fill-opacity:1"
         id="path873" /><path
         d="m 503.33733,113.83985 h -6.144 v 61.26934 h 6.144 z"
         style="font-style:normal;font-variant:normal;font-weight:normal;font-stretch:condensed;font-size:85.33333588px;font-family:'Nimbus Sans L';-inkscape-font-specification:'Nimbus Sans L, Condensed';font-variant-ligatures:normal;font-variant-caps:normal;font-variant-numeric:normal;font-feature-settings:normal;text-align:start;writing-mode:lr-tb;text-anchor:start;fill:#f2f3f3;fill-opacity:1"
         id="path875" /><path
         d="m 517.984,144.04785 c 0.85333,-6.22933 3.24267,-8.61866 8.61867,-8.61866 5.54666,0 8.448,2.56 8.448,7.424 0,3.24266 -0.93867,4.77866 -3.24267,5.12 l -10.15467,1.536 c -7.08266,1.10933 -11.09333,6.05866 -11.09333,13.824 0,7.85066 4.608,13.056 11.69067,13.056 5.20533,0 8.96,-2.13333 12.97066,-7.25334 0.42667,4.86401 2.13334,6.82667 6.31467,6.82667 0.93867,0 1.62133,-0.17066 2.816,-0.59733 0.42667,-0.17067 0.512,-0.17067 0.768,-0.256 v -5.46134 c -1.28,0.256 -1.62133,0.34134 -2.13333,0.34134 -1.28,0 -1.96267,-0.93867 -1.96267,-2.64534 v -25.68533 c 0,-7.76533 -5.29067,-12.45867 -13.99467,-12.45867 -5.71733,0 -10.06933,2.048 -12.45866,5.888 -1.45067,2.38934 -1.96267,4.52267 -2.21867,8.96 z m 16.896,15.616 c 0,5.632 -5.20533,10.496 -11.34933,10.496 -4.18134,0 -6.57067,-2.73066 -6.57067,-7.50933 0,-4.43733 2.21867,-6.57067 7.85067,-7.50933 6.99733,-1.19467 8.78933,-1.62134 10.06933,-2.816 z"
         style="font-style:normal;font-variant:normal;font-weight:normal;font-stretch:condensed;font-size:85.33333588px;font-family:'Nimbus Sans L';-inkscape-font-specification:'Nimbus Sans L, Condensed';font-variant-ligatures:normal;font-variant-caps:normal;font-variant-numeric:normal;font-feature-settings:normal;text-align:start;writing-mode:lr-tb;text-anchor:start;fill:#f2f3f3;fill-opacity:1"
         id="path878" /><path
         d="m 578.06534,143.19452 c -0.512,-8.96 -5.46133,-13.99467 -13.824,-13.99467 -8.448,0 -13.99466,5.54667 -13.99466,14.08 0,5.71734 2.73066,9.30134 8.448,11.008 l 7.168,2.13334 c 5.632,1.70666 7.25333,3.072 7.25333,6.4 0,4.352 -3.24267,6.99733 -8.61867,6.99733 -6.22933,0 -9.04533,-2.73067 -9.472,-9.04533 h -5.97333 c 0.256,4.43733 0.68267,6.57066 1.96267,8.87466 2.304,4.35201 6.99733,6.74134 13.056,6.74134 9.30133,0 15.18933,-5.71734 15.18933,-14.67734 0,-6.31466 -2.816,-9.55733 -10.24,-11.86133 l -6.22933,-1.87733 c -5.376,-1.62134 -6.57067,-2.73067 -6.57067,-5.888 0,-3.92534 2.90133,-6.31467 7.59467,-6.31467 5.376,0 8.02133,2.38933 8.27733,7.424 z"
         style="font-style:normal;font-variant:normal;font-weight:normal;font-stretch:condensed;font-size:85.33333588px;font-family:'Nimbus Sans L';-inkscape-font-specification:'Nimbus Sans L, Condensed';font-variant-ligatures:normal;font-variant-caps:normal;font-variant-numeric:normal;font-feature-settings:normal;text-align:start;writing-mode:lr-tb;text-anchor:start;fill:#f2f3f3;fill-opacity:1"
         id="path880" /><path
         d="m 586.35601,175.10919 h 6.144 v -24.32 c 0,-9.04534 3.84,-14.93334 9.728,-14.93334 3.584,0 5.71733,3.072 5.71733,8.36267 v 30.89067 h 6.144 v -27.22134 c 0,-6.74133 3.84,-12.032 8.78934,-12.032 4.52266,0 6.656,3.41334 6.656,10.41067 v 28.84267 h 6.144 v -30.89067 c 0,-9.30133 -4.43734,-15.01867 -11.52,-15.01867 -4.43734,0 -6.82667,1.536 -11.008,7.25334 -2.304,-5.20534 -5.12,-7.25334 -9.64267,-7.25334 -4.864,0 -8.192,2.304 -11.34933,7.85067 v -6.57067 h -5.80267 z"
         style="font-style:normal;font-variant:normal;font-weight:normal;font-stretch:condensed;font-size:85.33333588px;font-family:'Nimbus Sans L';-inkscape-font-specification:'Nimbus Sans L, Condensed';font-variant-ligatures:normal;font-variant-caps:normal;font-variant-numeric:normal;font-feature-settings:normal;text-align:start;writing-mode:lr-tb;text-anchor:start;fill:#f2f3f3;fill-opacity:1"
         id="path882" /><path
         d="m 650.15069,144.04785 c 0.85333,-6.22933 3.24266,-8.61866 8.61866,-8.61866 5.54667,0 8.448,2.56 8.448,7.424 0,3.24266 -0.93866,4.77866 -3.24266,5.12 l -10.15467,1.536 c -7.08267,1.10933 -11.09333,6.05866 -11.09333,13.824 0,7.85066 4.608,13.056 11.69066,13.056 5.20534,0 8.96,-2.13333 12.97067,-7.25334 0.42667,4.86401 2.13333,6.82667 6.31467,6.82667 0.93866,0 1.62133,-0.17066 2.816,-0.59733 0.42666,-0.17067 0.512,-0.17067 0.768,-0.256 v -5.46134 c -1.28,0.256 -1.62134,0.34134 -2.13334,0.34134 -1.28,0 -1.96266,-0.93867 -1.96266,-2.64534 v -25.68533 c 0,-7.76533 -5.29067,-12.45867 -13.99467,-12.45867 -5.71733,0 -10.06933,2.048 -12.45867,5.888 -1.45066,2.38934 -1.96266,4.52267 -2.21866,8.96 z m 16.896,15.616 c 0,5.632 -5.20534,10.496 -11.34934,10.496 -4.18133,0 -6.57066,-2.73066 -6.57066,-7.50933 0,-4.43733 2.21866,-6.57067 7.85066,-7.50933 6.99734,-1.19467 8.78934,-1.62134 10.06934,-2.816 z"
         style="font-style:normal;font-variant:normal;font-weight:normal;font-stretch:condensed;font-size:85.33333588px;font-family:'Nimbus Sans L';-inkscape-font-specification:'Nimbus Sans L, Condensed';font-variant-ligatures:normal;font-variant-caps:normal;font-variant-numeric:normal;font-feature-settings:normal;text-align:start;writing-mode:lr-tb;text-anchor:start;fill:#f2f3f3;fill-opacity:1"
         id="path884" /></g><path
       d="m 142.06353,45.227931 -36.81156,3.34851 V 192.04185 l 36.41828,-5.20881 v -61.16626 l 49.00346,67.86331 38.38469,-11.53379 -50.18328,-65.25888 50.57658,-61.538344 -39.17127,-8.482916 -48.61018,61.53833 0.39318,-63.026559 z M 58.608242,80.20135 c -0.416229,0.04 -0.866364,0.148585 -1.179916,0.446515 L 42.955383,94.339592 c -0.607864,0.576814 -0.682157,1.459754 -0.23583,2.157934 L 59.630848,122.9136 c -3.002823,4.77539 -5.441214,9.89794 -7.157807,15.32874 l -31.069581,6.10175 c -0.86465,0.16954 -1.49442,0.9477 -1.49442,1.78587 v 19.347 c 0,0.81798 0.657582,1.51862 1.49442,1.71139 l 30.125725,6.92028 c 1.610811,6.28745 4.099646,12.30415 7.393789,17.78434 l -17.461897,25.15114 c -0.487091,0.70234 -0.392036,1.63938 0.235831,2.23233 l 14.472904,13.69173 c 0.60977,0.5751 1.544902,0.6471 2.281082,0.22307 L 85.823666,217.4904 c 5.368807,2.93238 11.181293,5.28141 17.304564,6.84584 l 6.37125,29.02049 c 0.17906,0.82046 0.9237,1.41384 1.80911,1.41384 h 20.45087 c 0.85837,0 1.60529,-0.54518 1.80912,-1.33935 l 7.55107,-29.16932 c 6.31519,-1.61082 12.26929,-4.00218 17.77652,-7.0691 l 26.97942,16.74259 c 0.74368,0.45832 1.72929,0.36956 2.35972,-0.22309 l 14.39427,-13.69172 c 0.61167,-0.57738 0.76255,-1.46146 0.3147,-2.15791 l -9.83216,-15.3288 -3.22496,0.96732 c -0.46557,0.13525 -0.98161,-0.0628 -1.25859,-0.44652 0,0 -6.21083,-8.64311 -14.3156,-19.86788 -9.69303,17.94319 -29.46074,30.2111 -52.22839,30.2111 -32.352466,0 -58.599613,-24.83042 -58.599613,-55.43659 0,-22.51321 14.230749,-41.8497 34.609157,-50.52544 v -14.287 c -3.708809,1.228106 -7.291857,2.709766 -10.697364,4.464686 -0.0044,-0.003 0.007,-0.0706 0,-0.0742 L 59.788119,80.424227 c -0.371271,-0.229734 -0.763687,-0.263833 -1.179916,-0.223068 z"
       style="fill:#f2f3f3;fill-opacity:1;stroke-width:19.04933548"
       id="path2876"
       inkscape:connector-curvature="0" /></g><defs
     id="defs91"><linearGradient
       id="_Linear1"
       x1="0"
       y1="0"
       x2="1"
       y2="0"
       gradientUnits="userSpaceOnUse"
       gradientTransform="matrix(137.32,719.201,-719.201,137.32,-12.7656,-459.807)"><stop
         offset="0%"
         style="stop-color:#fff;stop-opacity:1"
         id="stop39" /><stop
         offset="34%"
         style="stop-color:#fff;stop-opacity:1"
         id="stop41" /><stop
         offset="51%"
         style="stop-color:#bebdf3;stop-opacity:1"
         id="stop43" /><stop
         offset="75%"
         style="stop-color:#867fb7;stop-opacity:1"
         id="stop45" /><stop
         offset="87%"
         style="stop-color:#9f99c7;stop-opacity:1"
         id="stop47" /><stop
         offset="100%"
         style="stop-color:#524c76;stop-opacity:1"
         id="stop49" /></linearGradient><linearGradient
       id="_Linear2"
       x1="0"
       y1="0"
       x2="1"
       y2="0"
       gradientUnits="userSpaceOnUse"
       gradientTransform="matrix(-41.4782,-185.977,185.977,-41.4782,156.163,202.263)"><stop
         offset="0%"
         style="stop-color:#fff;stop-opacity:1"
         id="stop52" /><stop
         offset="34%"
         style="stop-color:#fff;stop-opacity:1"
         id="stop54" /><stop
         offset="51%"
         style="stop-color:#bebbdb;stop-opacity:1"
         id="stop56" /><stop
         offset="75%"
         style="stop-color:#928bbe;stop-opacity:1"
         id="stop58" /><stop
         offset="87%"
         style="stop-color:#9f99c7;stop-opacity:1"
         id="stop60" /><stop
         offset="100%"
         style="stop-color:#524c76;stop-opacity:1"
         id="stop62" /></linearGradient><radialGradient
       id="_Radial3"
       cx="0"
       cy="0"
       r="1"
       gradientUnits="userSpaceOnUse"
       gradientTransform="matrix(36.9132,0,0,28.2927,107.505,89.2005)"><stop
         offset="0%"
         style="stop-color:#fff;stop-opacity:1"
         id="stop65" /><stop
         offset="34%"
         style="stop-color:#fff;stop-opacity:1"
         id="stop67" /><stop
         offset="51%"
         style="stop-color:#bebbdb;stop-opacity:1"
         id="stop69" /><stop
         offset="75%"
         style="stop-color:#928bbe;stop-opacity:1"
         id="stop71" /><stop
         offset="87%"
         style="stop-color:#9f99c7;stop-opacity:1"
         id="stop73" /><stop
         offset="100%"
         style="stop-color:#524c76;stop-opacity:1"
         id="stop75" /></radialGradient><radialGradient
       id="_Radial4"
       cx="0"
       cy="0"
       r="1"
       gradientUnits="userSpaceOnUse"
       gradientTransform="matrix(-5.06038,321.086,-273.845,-4.31164,23.522,98.2549)"><stop
         offset="0%"
         style="stop-color:#fff;stop-opacity:1"
         id="stop78" /><stop
         offset="34%"
         style="stop-color:#fff;stop-opacity:1"
         id="stop80" /><stop
         offset="51%"
         style="stop-color:#bebbdb;stop-opacity:1"
         id="stop82" /><stop
         offset="75%"
         style="stop-color:#928bbe;stop-opacity:1"
         id="stop84" /><stop
         offset="87%"
         style="stop-color:#9f99c7;stop-opacity:1"
         id="stop86" /><stop
         offset="100%"
         style="stop-color:#524c76;stop-opacity:1"
         id="stop88" /></radialGradient></defs></svg>
